<svg width="18" height="17" viewBox="0 0 18 17" fill="none" xmlns="http://www.w3.org/2000/svg">
<path d="M2.53018 16.8944H14.7425C16.1377 16.8944 17.2727 15.792 17.2727 14.4369V2.57582C17.2727 1.22079 16.1377 0.118408 14.7425 0.118408H2.53018C1.13502 0.118408 0 1.22079 0 2.57582V14.4369C0 15.792 1.13502 16.8944 2.53018 16.8944ZM1.01207 2.57582C1.01207 1.76283 1.69311 1.10137 2.53018 1.10137H14.7425C15.5796 1.10137 16.2606 1.76283 16.2606 2.57582V14.4369C16.2606 15.2499 15.5796 15.9114 14.7425 15.9114H2.53018C1.69311 15.9114 1.01207 15.2499 1.01207 14.4369V2.57582Z" fill="white"/>
<path d="M8.63635 12.9297C11.1476 12.9297 13.1907 10.9453 13.1907 8.50636C13.1907 6.06737 11.1476 4.08301 8.63635 4.08301C6.12515 4.08301 4.08203 6.06737 4.08203 8.50636C4.08203 10.9453 6.12515 12.9297 8.63635 12.9297ZM8.63635 5.06597C10.5896 5.06597 12.1786 6.60928 12.1786 8.50636C12.1786 10.4034 10.5896 11.9467 8.63635 11.9467C6.68311 11.9467 5.0941 10.4034 5.0941 8.50636C5.0941 6.60928 6.68311 5.06597 8.63635 5.06597Z" fill="white"/>
<path d="M5.5 4.91373C6.32708 4.91373 7 4.26016 7 3.45686C7 2.65357 6.32708 2 5.5 2C4.67292 2 4 2.65357 4 3.45686C4 4.26016 4.67292 4.91373 5.5 4.91373ZM5.5 2.97124C5.77565 2.97124 6 3.18914 6 3.45686C6 3.72459 5.77565 3.94248 5.5 3.94248C5.22435 3.94248 5 3.72459 5 3.45686C5 3.18914 5.22435 2.97124 5.5 2.97124Z" fill="white"/>
</svg>
